<svg id="Logo" xmlns="http://www.w3.org/2000/svg" viewBox="0 0 1575 1575"><defs><style>.cls-1{fill:#f05454;}.cls-2{fill:#222831;}</style></defs><g id="LOGO-2" data-name="LOGO"><g id="J"><path class="cls-1" d="M1585.5,1183.5v43.78q-7,4.28-13.8,8.8a470,470,0,0,0-182.28,231.26c-1,2.76-2,5.53-2.92,8.3V1183.5Z" transform="translate(-698.5 -1183.5)"/><path class="cls-1" d="M1585.5,1256.93V1627.5A443.49,443.49,0,0,1,1421.93,1971q-17,13.89-35.43,26.07V1627a443.75,443.75,0,0,1,199-370.07Z" transform="translate(-698.5 -1183.5)"/><path class="cls-1" d="M1582.5,1786.9q1.55-4.25,3-8.52V2315.5a443.38,443.38,0,0,1-443.5,443c-244.77,0-443.23-198.29-443.5-443h199c.27,134.8,109.64,244,244.5,244a244.48,244.48,0,0,0,244.5-244V2026.7q7-4.29,13.8-8.78c12.87-8.52,25.46-17.79,37.41-27.53A469.88,469.88,0,0,0,1582.5,1786.9Z" transform="translate(-698.5 -1183.5)"/></g><path id="front_part" data-name="front part" class="cls-2" d="M2074.5,1256.93a443.53,443.53,0,0,0-688,370.07v.5a244.48,244.48,0,0,1-244.5,244c-134.86,0-244.23-109.2-244.5-244v-.5c0-135,109.47-244.5,244.5-244.5a244.55,244.55,0,0,1,205,111.22,246.14,246.14,0,0,1,14,24.48V1241.28q-6.93-3.94-14-7.64a441,441,0,0,0-205-50.14c-244.94,0-443.5,198.56-443.5,443.5v.5c.15,138.59,63.87,262.29,163.57,343.5a443.08,443.08,0,0,0,524.43,26.07q18.38-12.16,35.43-26.07a443.49,443.49,0,0,0,163.57-343.5v-.5c0-135,109.47-244.5,244.5-244.5S2074.5,1492,2074.5,1627V2758.5h199V1627C2273.5,1472.42,2194.42,1336.31,2074.5,1256.93Z" transform="translate(-698.5 -1183.5)"/></g></svg>